<?xml version="1.0" encoding="UTF-8" standalone="no"?>
<!DOCTYPE svg PUBLIC "-//W3C//DTD SVG 1.1//EN" "http://www.w3.org/Graphics/SVG/1.1/DTD/svg11.dtd">
<svg width="100%" height="100%" viewBox="0 0 21 17" version="1.1" xmlns="http://www.w3.org/2000/svg" xmlns:xlink="http://www.w3.org/1999/xlink" xml:space="preserve" xmlns:serif="http://www.serif.com/" style="fill-rule:evenodd;clip-rule:evenodd;stroke-linejoin:round;stroke-miterlimit:2;">
    <path d="M10.339,3.297L13.449,6.068L2.167,6.068C0.97,6.068 -0,6.933 -0,8C-0,9.067 0.97,9.931 2.167,9.931L13.449,9.931L10.339,12.703C9.916,13.08 9.704,13.574 9.704,14.068C9.704,14.563 9.916,15.057 10.339,15.434C11.185,16.189 12.558,16.189 13.404,15.434L20.214,9.366C21.061,8.611 21.061,7.389 20.214,6.634L13.404,0.566C12.558,-0.189 11.185,-0.189 10.339,0.566C9.492,1.319 9.492,2.543 10.339,3.297" style="fill:#eee31b;fill-rule:nonzero;"/>
</svg>
