<?xml version="1.0" encoding="UTF-8" standalone="no"?>
<!DOCTYPE svg PUBLIC "-//W3C//DTD SVG 1.1//EN" "http://www.w3.org/Graphics/SVG/1.1/DTD/svg11.dtd">
<svg width="100%" height="100%" viewBox="0 0 32 34" version="1.1" xmlns="http://www.w3.org/2000/svg" xmlns:xlink="http://www.w3.org/1999/xlink" xml:space="preserve" xmlns:serif="http://www.serif.com/" style="fill-rule:evenodd;clip-rule:evenodd;stroke-linejoin:round;stroke-miterlimit:2;">
    <path d="M31.738,30.604C31.666,30.079 31.518,29.58 31.377,28.951C31.235,28.901 30.927,28.861 30.735,28.708C30.394,28.436 29.934,28.167 29.862,27.771C29.648,26.597 28.815,26.057 27.68,25.706C27.384,25.614 27.272,25.233 27.063,24.994C26.834,24.73 26.67,24.357 26.338,24.245C25.332,23.906 24.849,23.151 24.497,22.319C24.182,21.574 23.728,21.049 22.847,20.8C22.416,20.679 22.048,20.334 21.843,19.973C21.146,18.734 20.314,17.614 19.074,16.804C18.918,16.701 18.758,16.581 18.678,16.423C18.263,15.605 17.374,15.377 16.313,15.221C16.437,15.004 16.555,14.794 16.701,14.535C16.505,14.372 16.324,14.122 16.046,14.005C14.624,13.4 13.924,12.203 13.134,11.068C12.572,10.26 11.839,9.615 10.641,9.476C10.24,9.429 9.827,9.39 9.775,8.882C9.75,8.64 9.362,8.506 9.12,8.342C8.768,8.104 8.22,8.065 8.484,7.338C8.564,7.118 7.977,6.733 7.577,6.637C6.562,6.394 5.859,5.938 5.626,4.972C5.45,4.236 4.763,4.12 3.89,4.37C3.282,3.596 2.698,2.857 2.115,2.116C2.176,2.054 2.237,1.991 2.298,1.928C1.924,1.906 1.549,1.885 1.109,1.858C1.085,1.445 0.976,1.1 0.81,0.796L-0,1.224C0.013,1.318 0.025,1.402 0.042,1.508C0.577,4.781 0.593,2.847 1.741,4.819C2.888,6.792 1.703,4.724 3.828,7.092C4.352,7.676 4.654,8.124 4.815,8.47C5.194,8.799 5.572,9.131 5.952,9.46C7.261,10.595 8.599,11.707 9.879,12.869C10.832,13.734 11.705,14.67 12.628,15.563C13.659,16.561 14.713,17.539 15.746,18.536C17.308,20.042 18.861,21.557 20.417,23.068C20.523,23.171 20.605,23.313 20.746,23.366C22.127,23.885 22.825,25.044 23.791,25.945C25.408,27.454 26.961,29.021 28.511,30.59C28.917,31.001 29.184,31.527 29.561,31.964C29.905,32.364 30.417,32.504 31.069,32.079C31.697,31.671 31.808,31.12 31.738,30.604" style="fill:#fab511;fill-rule:nonzero;"/>
    <path d="M3.56,31.736C5.449,29.377 3.357,30.155 7.043,26.95C10.728,23.745 21.473,14.506 23.279,12.064C25.087,9.622 31.935,3.493 31.486,2.584C31.036,1.675 30.897,0.754 30.182,0.377L29.466,0C29.368,0.347 29.358,0.753 29.489,1.257C28.919,1.22 28.434,1.189 27.951,1.158C28.055,1.244 28.161,1.329 28.266,1.416C27.788,2.234 27.31,3.051 26.812,3.904C25.563,3.463 24.705,3.498 24.761,4.374C24.833,5.521 24.086,5.972 22.845,6.114C22.355,6.169 21.733,6.549 21.924,6.831C22.557,7.764 21.85,7.727 21.481,7.965C21.227,8.127 20.767,8.232 20.83,8.524C20.96,9.139 20.431,9.125 19.923,9.12C18.398,9.103 17.687,9.781 17.263,10.685C16.668,11.955 16.215,13.313 14.578,13.834C14.259,13.936 14.117,14.214 13.924,14.384C14.218,14.723 14.456,14.998 14.704,15.285C13.367,15.311 12.286,15.452 12.06,16.393C12.017,16.573 11.853,16.696 11.689,16.797C10.371,17.597 9.716,18.842 9.284,20.254C9.158,20.666 8.806,21.031 8.287,21.113C7.223,21.281 6.831,21.855 6.708,22.719C6.571,23.685 6.232,24.535 5.04,24.795C4.646,24.88 4.577,25.314 4.378,25.601C4.197,25.862 4.199,26.312 3.844,26.379C2.487,26.632 1.602,27.166 1.782,28.573C1.842,29.048 1.34,29.305 0.998,29.586C0.805,29.744 0.415,29.745 0.249,29.785C0.31,30.535 0.31,31.124 0.422,31.756C0.501,32.2 0.713,32.679 1.184,33.134C1.846,33.122 2.691,32.82 3.56,31.736" style="fill:#fab511;fill-rule:nonzero;"/>
</svg>
