<?xml version="1.0" encoding="UTF-8" standalone="no"?>
<!DOCTYPE svg PUBLIC "-//W3C//DTD SVG 1.1//EN" "http://www.w3.org/Graphics/SVG/1.1/DTD/svg11.dtd">
<svg width="100%" height="100%" viewBox="0 0 35 32" version="1.1" xmlns="http://www.w3.org/2000/svg" xmlns:xlink="http://www.w3.org/1999/xlink" xml:space="preserve" xmlns:serif="http://www.serif.com/" style="fill-rule:evenodd;clip-rule:evenodd;stroke-linejoin:round;stroke-miterlimit:2;">
    <path d="M17.227,0C12.548,0 11.962,0.019 10.124,0.096C8.29,0.174 7.039,0.443 5.942,0.838C4.81,1.246 3.849,1.792 2.891,2.68C1.934,3.567 1.344,4.457 0.904,5.507C0.478,6.522 0.187,7.684 0.103,9.383C0.019,11.086 -0,11.629 -0,15.966C-0,20.302 0.019,20.845 0.103,22.548C0.187,24.247 0.478,25.408 0.904,26.424C1.344,27.474 1.934,28.363 2.891,29.251C3.849,30.139 4.81,30.685 5.942,31.093C7.039,31.487 8.29,31.757 10.124,31.835C11.962,31.912 12.548,31.931 17.227,31.931C21.906,31.931 22.492,31.912 24.33,31.835C26.164,31.757 27.415,31.487 28.511,31.093C29.644,30.685 30.605,30.139 31.563,29.251C32.52,28.363 33.109,27.474 33.55,26.424C33.976,25.408 34.267,24.247 34.351,22.548C34.435,20.845 34.454,20.302 34.454,15.966C34.454,11.629 34.435,11.086 34.351,9.383C34.267,7.684 33.976,6.522 33.55,5.507C33.109,4.457 32.52,3.567 31.563,2.68C30.605,1.792 29.644,1.246 28.511,0.838C27.415,0.443 26.164,0.174 24.33,0.096C22.492,0.019 21.906,0 17.227,0M17.227,2.877C21.827,2.877 22.372,2.893 24.188,2.97C25.868,3.041 26.78,3.301 27.387,3.52C28.191,3.809 28.765,4.155 29.368,4.714C29.971,5.272 30.344,5.804 30.657,6.55C30.893,7.112 31.173,7.957 31.249,9.514C31.332,11.197 31.35,11.702 31.35,15.966C31.35,20.229 31.332,20.733 31.249,22.417C31.173,23.974 30.893,24.818 30.657,25.382C30.344,26.127 29.971,26.658 29.368,27.217C28.765,27.775 28.191,28.122 27.387,28.411C26.78,28.63 25.868,28.89 24.188,28.961C22.372,29.038 21.827,29.055 17.227,29.055C12.627,29.055 12.082,29.038 10.266,28.961C8.586,28.89 7.674,28.63 7.067,28.411C6.263,28.122 5.689,27.775 5.086,27.217C4.483,26.658 4.11,26.127 3.797,25.382C3.561,24.818 3.281,23.974 3.204,22.417C3.122,20.733 3.104,20.229 3.104,15.966C3.104,11.702 3.122,11.197 3.204,9.514C3.281,7.957 3.561,7.112 3.797,6.55C4.11,5.804 4.483,5.272 5.086,4.714C5.689,4.155 6.263,3.809 7.067,3.52C7.674,3.301 8.586,3.041 10.266,2.97C12.082,2.893 12.627,2.877 17.227,2.877" style="fill:#013f4c;fill-rule:nonzero;"/>
    <path d="M17.227,21.287C14.056,21.287 11.484,18.904 11.484,15.966C11.484,13.026 14.056,10.643 17.227,10.643C20.398,10.643 22.969,13.026 22.969,15.966C22.969,18.904 20.398,21.287 17.227,21.287M17.227,7.766C12.341,7.766 8.38,11.437 8.38,15.966C8.38,20.493 12.341,24.164 17.227,24.164C22.113,24.164 26.073,20.493 26.073,15.966C26.073,11.437 22.113,7.766 17.227,7.766" style="fill:#013f4c;fill-rule:nonzero;"/>
    <path d="M28.49,7.443C28.49,8.501 27.564,9.358 26.423,9.358C25.281,9.358 24.355,8.501 24.355,7.443C24.355,6.384 25.281,5.527 26.423,5.527C27.564,5.527 28.49,6.384 28.49,7.443" style="fill:#013f4c;fill-rule:nonzero;"/>
</svg>
