<?xml version="1.0" encoding="UTF-8" standalone="no"?>
<!DOCTYPE svg PUBLIC "-//W3C//DTD SVG 1.1//EN" "http://www.w3.org/Graphics/SVG/1.1/DTD/svg11.dtd">
<svg width="100%" height="100%" viewBox="0 0 158 37" version="1.1" xmlns="http://www.w3.org/2000/svg" xmlns:xlink="http://www.w3.org/1999/xlink" xml:space="preserve" xmlns:serif="http://www.serif.com/" style="fill-rule:evenodd;clip-rule:evenodd;stroke-linejoin:round;stroke-miterlimit:2;">
    <path d="M25.902,0.298C29.866,0.298 32.457,2.44 32.457,6.971L32.457,19.368C32.457,22.406 31.293,24.349 29.39,25.294L29.39,25.693L33.196,34.256C33.408,34.704 33.249,35.152 32.668,35.152L26.694,35.152C26.272,35.152 25.849,34.954 25.69,34.506L22.413,26.689L20.087,26.689L20.087,34.406C20.087,34.904 19.823,35.152 19.294,35.152L13.427,35.152C12.899,35.152 12.633,34.904 12.633,34.406L12.633,1.045C12.633,0.548 12.899,0.298 13.427,0.298L25.902,0.298ZM20.087,6.274L20.087,20.713L24.157,20.713C24.738,20.713 25.004,20.465 25.004,19.916L25.004,7.07C25.004,6.524 24.738,6.274 24.157,6.274L20.087,6.274Z" style="fill:#e52a35;fill-rule:nonzero;"/>
    <path d="M55.98,6.672L55.98,10.456C55.98,10.904 55.61,11.202 55.134,11.254L49.636,11.751C49.108,11.801 48.791,11.502 48.791,11.054L48.791,6.772C48.791,6.224 48.527,5.976 47.946,5.976L44.721,5.976C44.139,5.976 43.875,6.224 43.875,6.772L43.875,28.679C43.875,29.228 44.139,29.478 44.721,29.478L47.946,29.478C48.527,29.478 48.791,29.228 48.791,28.679L48.791,24.447C48.791,24 49.161,23.7 49.636,23.651L55.134,23.153C55.662,23.104 55.98,23.401 55.98,23.851L55.98,28.779C55.98,33.311 53.39,35.451 49.425,35.451L42.976,35.451C39.011,35.451 36.422,33.311 36.422,28.779L36.422,6.672C36.422,2.142 39.011,-0 42.976,-0L49.425,-0C53.39,-0 55.98,2.142 55.98,6.672" style="fill:#e52a35;fill-rule:nonzero;"/>
    <path d="M6.66,0.298C7.188,0.298 7.453,0.548 7.453,1.045L7.453,34.406C7.453,34.904 7.188,35.152 6.66,35.152L0.792,35.152C0.264,35.152 0,34.904 0,34.406L0,1.045C0,0.548 0.264,0.298 0.792,0.298L6.66,0.298Z" style="fill:#e52a35;fill-rule:nonzero;"/>
    <path d="M68.504,22.149C68.504,22.428 68.307,22.677 67.997,22.677C67.686,22.677 67.443,22.463 66.989,22.463C66.664,22.463 66.368,22.628 66.368,22.927C66.368,23.662 68.898,23.191 68.898,25.032C68.898,26.051 68.004,26.686 66.959,26.686C66.376,26.686 65.119,26.558 65.119,25.887C65.119,25.609 65.316,25.38 65.626,25.38C65.983,25.38 66.406,25.66 66.899,25.66C67.399,25.66 67.671,25.395 67.671,25.045C67.671,24.204 65.142,24.711 65.142,23.055C65.142,22.056 66.012,21.436 67.02,21.436C67.443,21.436 68.504,21.587 68.504,22.149" style="fill:#007e96;fill-rule:nonzero;"/>
    <path d="M69.337,23.333C69.337,22.991 69.565,22.763 69.882,22.763C70.201,22.763 70.428,22.991 70.428,23.333L70.428,25.166C70.428,25.595 70.769,25.83 71.132,25.83C71.496,25.83 71.837,25.595 71.837,25.166L71.837,23.333C71.837,22.991 72.064,22.763 72.382,22.763C72.7,22.763 72.927,22.991 72.927,23.333L72.927,25.187C72.927,26.101 72.283,26.686 71.132,26.686C69.981,26.686 69.337,26.101 69.337,25.187L69.337,23.333Z" style="fill:#007e96;fill-rule:nonzero;"/>
    <path d="M73.6,23.333C73.6,22.991 73.828,22.763 74.145,22.763C74.448,22.763 74.622,22.92 74.69,23.19C74.895,22.877 75.319,22.72 75.728,22.72C76.902,22.72 77.486,23.754 77.486,24.753C77.486,25.723 76.788,26.686 75.691,26.686C75.35,26.686 74.978,26.564 74.69,26.329L74.69,27.585C74.69,27.927 74.463,28.155 74.145,28.155C73.828,28.155 73.6,27.927 73.6,27.585L73.6,23.333ZM75.547,25.744C76.114,25.744 76.394,25.187 76.394,24.71C76.394,24.225 76.114,23.661 75.547,23.661C74.963,23.661 74.69,24.175 74.69,24.674C74.69,25.174 74.948,25.744 75.547,25.744" style="fill:#007e96;fill-rule:nonzero;"/>
    <path d="M77.998,23.333C77.998,22.991 78.225,22.763 78.543,22.763C78.847,22.763 79.021,22.92 79.089,23.19C79.293,22.877 79.717,22.72 80.126,22.72C81.3,22.72 81.884,23.754 81.884,24.753C81.884,25.723 81.187,26.686 80.089,26.686C79.748,26.686 79.376,26.564 79.089,26.329L79.089,27.585C79.089,27.927 78.861,28.155 78.543,28.155C78.225,28.155 77.998,27.927 77.998,27.585L77.998,23.333ZM79.945,25.744C80.512,25.744 80.792,25.187 80.792,24.71C80.792,24.225 80.512,23.661 79.945,23.661C79.362,23.661 79.089,24.175 79.089,24.674C79.089,25.174 79.346,25.744 79.945,25.744" style="fill:#007e96;fill-rule:nonzero;"/>
    <path d="M86.105,24.71C86.105,25.78 85.325,26.686 84.151,26.686C82.977,26.686 82.197,25.78 82.197,24.71C82.197,23.669 83,22.72 84.151,22.72C85.302,22.72 86.105,23.669 86.105,24.71M83.288,24.71C83.288,25.202 83.56,25.744 84.151,25.744C84.742,25.744 85.014,25.202 85.014,24.71C85.014,24.218 84.75,23.661 84.151,23.661C83.552,23.661 83.288,24.218 83.288,24.71" style="fill:#007e96;fill-rule:nonzero;"/>
    <path d="M86.586,23.277C86.586,22.934 86.874,22.763 87.147,22.763C87.435,22.763 87.677,22.863 87.677,23.191L87.692,23.191C87.897,22.906 88.116,22.763 88.457,22.763C88.722,22.763 88.987,22.941 88.987,23.312C88.987,23.648 88.662,23.67 88.336,23.812C88.01,23.954 87.677,24.089 87.677,24.497L87.677,26.073C87.677,26.416 87.45,26.644 87.132,26.644C86.814,26.644 86.586,26.416 86.586,26.073L86.586,23.277Z" style="fill:#007e96;fill-rule:nonzero;"/>
    <path d="M89.708,23.704L89.465,23.704C89.17,23.704 88.988,23.532 88.988,23.255C88.988,22.998 89.193,22.805 89.465,22.805L89.708,22.805L89.708,22.191C89.708,21.85 89.936,21.621 90.253,21.621C90.571,21.621 90.799,21.85 90.799,22.191L90.799,22.805L91.109,22.805C91.39,22.805 91.632,22.927 91.632,23.255C91.632,23.576 91.39,23.704 91.109,23.704L90.799,23.704L90.799,26.072C90.799,26.415 90.571,26.643 90.253,26.643C89.936,26.643 89.708,26.415 89.708,26.072L89.708,23.704Z" style="fill:#007e96;fill-rule:nonzero;"/>
    <path d="M92.968,21.785C92.968,22.106 92.696,22.378 92.354,22.378C92.029,22.378 91.74,22.098 91.74,21.785C91.74,21.493 92.029,21.222 92.354,21.222C92.68,21.222 92.968,21.485 92.968,21.785M91.809,23.333C91.809,22.991 92.036,22.763 92.354,22.763C92.673,22.763 92.9,22.991 92.9,23.333L92.9,26.072C92.9,26.415 92.673,26.643 92.354,26.643C92.036,26.643 91.809,26.415 91.809,26.072L91.809,23.333Z" style="fill:#007e96;fill-rule:nonzero;"/>
    <path d="M93.564,23.333C93.564,22.991 93.791,22.763 94.109,22.763C94.39,22.763 94.572,22.905 94.609,23.141C94.822,22.862 95.147,22.72 95.662,22.72C96.518,22.72 97.154,23.233 97.154,24.104L97.154,26.072C97.154,26.415 96.927,26.644 96.609,26.644C96.291,26.644 96.064,26.415 96.064,26.072L96.064,24.282C96.064,23.805 95.746,23.576 95.352,23.576C94.905,23.576 94.655,23.882 94.655,24.282L94.655,26.072C94.655,26.415 94.428,26.644 94.109,26.644C93.791,26.644 93.564,26.415 93.564,26.072L93.564,23.333Z" style="fill:#007e96;fill-rule:nonzero;"/>
    <path d="M101.54,26.301C101.54,27.534 100.685,28.155 99.443,28.155C98.996,28.155 97.724,27.949 97.724,27.385C97.724,27.193 97.951,26.936 98.163,26.936C98.511,26.936 98.897,27.257 99.526,27.257C100.056,27.257 100.45,26.965 100.45,26.444L100.45,26.201L100.435,26.201C100.208,26.515 99.836,26.686 99.336,26.686C98.193,26.686 97.655,25.738 97.655,24.717C97.655,23.683 98.352,22.72 99.45,22.72C99.821,22.72 100.246,22.876 100.45,23.191C100.518,22.92 100.692,22.763 100.995,22.763C101.313,22.763 101.54,22.991 101.54,23.333L101.54,26.301ZM99.594,23.661C99.026,23.661 98.746,24.218 98.746,24.696C98.746,25.245 99.026,25.744 99.594,25.744C100.177,25.744 100.45,25.231 100.45,24.732C100.45,24.233 100.192,23.661 99.594,23.661" style="fill:#007e96;fill-rule:nonzero;"/>
    <path d="M104.045,23.661C103.969,23.454 103.931,23.326 103.931,23.176C103.931,22.948 104.159,22.763 104.477,22.763C104.742,22.763 104.931,22.927 104.992,23.169L105.621,25.131L105.635,25.131L106.272,23.212C106.355,22.933 106.506,22.763 106.825,22.763C107.143,22.763 107.294,22.933 107.377,23.212L108.014,25.131L108.028,25.131L108.657,23.169C108.718,22.927 108.907,22.763 109.172,22.763C109.49,22.763 109.717,22.948 109.717,23.262C109.717,23.376 109.665,23.49 109.611,23.647L108.68,26.123C108.566,26.422 108.377,26.643 108.021,26.643C107.688,26.643 107.491,26.465 107.393,26.165L106.832,24.51L106.817,24.51L106.256,26.165C106.158,26.465 105.961,26.643 105.628,26.643C105.272,26.643 105.083,26.422 104.969,26.123L104.045,23.661Z" style="fill:#007e96;fill-rule:nonzero;"/>
    <path d="M113.728,25.973C113.728,26.237 113.728,26.644 113.207,26.644C112.888,26.644 112.759,26.48 112.684,26.208C112.403,26.522 112.062,26.686 111.646,26.686C110.623,26.686 109.843,25.867 109.843,24.71C109.843,23.583 110.645,22.72 111.646,22.72C112.047,22.72 112.441,22.869 112.684,23.191C112.714,22.941 112.941,22.763 113.207,22.763C113.728,22.763 113.728,23.169 113.728,23.433L113.728,25.973ZM111.797,25.744C112.365,25.744 112.638,25.202 112.638,24.71C112.638,24.218 112.373,23.661 111.797,23.661C111.198,23.661 110.934,24.218 110.934,24.71C110.934,25.202 111.207,25.744 111.797,25.744" style="fill:#007e96;fill-rule:nonzero;"/>
    <path d="M114.697,23.704L114.455,23.704C114.159,23.704 113.978,23.532 113.978,23.255C113.978,22.998 114.182,22.805 114.455,22.805L114.697,22.805L114.697,22.191C114.697,21.85 114.925,21.621 115.243,21.621C115.56,21.621 115.788,21.85 115.788,22.191L115.788,22.805L116.098,22.805C116.379,22.805 116.621,22.927 116.621,23.255C116.621,23.576 116.379,23.704 116.098,23.704L115.788,23.704L115.788,26.072C115.788,26.415 115.56,26.643 115.243,26.643C114.925,26.643 114.697,26.415 114.697,26.072L114.697,23.704Z" style="fill:#007e96;fill-rule:nonzero;"/>
    <path d="M117.621,25.046C117.696,25.552 118.143,25.787 118.651,25.787C119.211,25.787 119.598,25.374 119.885,25.374C120.12,25.374 120.331,25.595 120.331,25.816C120.331,26.258 119.362,26.686 118.552,26.686C117.325,26.686 116.508,25.844 116.508,24.71C116.508,23.669 117.31,22.72 118.461,22.72C119.642,22.72 120.423,23.733 120.423,24.589C120.423,24.896 120.279,25.046 119.946,25.046L117.621,25.046ZM119.332,24.36C119.272,23.91 118.969,23.576 118.461,23.576C117.976,23.576 117.651,23.925 117.598,24.36L119.332,24.36Z" style="fill:#007e96;fill-rule:nonzero;"/>
    <path d="M120.878,23.277C120.878,22.934 121.166,22.763 121.439,22.763C121.727,22.763 121.969,22.863 121.969,23.191L121.984,23.191C122.189,22.906 122.408,22.763 122.749,22.763C123.014,22.763 123.279,22.941 123.279,23.312C123.279,23.648 122.954,23.67 122.628,23.812C122.302,23.954 121.969,24.089 121.969,24.497L121.969,26.073C121.969,26.416 121.742,26.644 121.423,26.644C121.106,26.644 120.878,26.416 120.878,26.073L120.878,23.277Z" style="fill:#007e96;fill-rule:nonzero;"/>
    <path d="M127.738,23.918C127.533,23.918 127.117,23.618 126.761,23.618C126.564,23.618 126.39,23.704 126.39,23.904C126.39,24.382 128.283,24.311 128.283,25.48C128.283,26.165 127.67,26.686 126.731,26.686C126.117,26.686 125.208,26.357 125.208,25.895C125.208,25.737 125.375,25.438 125.677,25.438C126.102,25.438 126.292,25.787 126.806,25.787C127.139,25.787 127.238,25.688 127.238,25.495C127.238,25.023 125.344,25.095 125.344,23.918C125.344,23.205 125.958,22.72 126.821,22.72C127.359,22.72 128.185,22.955 128.185,23.462C128.185,23.697 127.995,23.918 127.738,23.918" style="fill:#007e96;fill-rule:nonzero;"/>
    <path d="M132.421,25.973C132.421,26.237 132.421,26.644 131.9,26.644C131.581,26.644 131.452,26.48 131.377,26.208C131.096,26.522 130.756,26.686 130.339,26.686C129.316,26.686 128.536,25.867 128.536,24.71C128.536,23.583 129.338,22.72 130.339,22.72C130.74,22.72 131.134,22.869 131.377,23.191C131.407,22.941 131.634,22.763 131.9,22.763C132.421,22.763 132.421,23.169 132.421,23.433L132.421,25.973ZM130.49,25.744C131.059,25.744 131.331,25.202 131.331,24.71C131.331,24.218 131.066,23.661 130.49,23.661C129.892,23.661 129.627,24.218 129.627,24.71C129.627,25.202 129.9,25.744 130.49,25.744" style="fill:#007e96;fill-rule:nonzero;"/>
    <path d="M133.109,23.333C133.109,22.991 133.336,22.763 133.654,22.763C133.935,22.763 134.116,22.905 134.154,23.141C134.366,22.862 134.692,22.72 135.207,22.72C136.063,22.72 136.699,23.233 136.699,24.104L136.699,26.072C136.699,26.415 136.472,26.644 136.154,26.644C135.836,26.644 135.609,26.415 135.609,26.072L135.609,24.282C135.609,23.805 135.29,23.576 134.897,23.576C134.449,23.576 134.2,23.882 134.2,24.282L134.2,26.072C134.2,26.415 133.973,26.644 133.654,26.644C133.336,26.644 133.109,26.415 133.109,26.072L133.109,23.333Z" style="fill:#007e96;fill-rule:nonzero;"/>
    <path d="M138.511,21.785C138.511,22.106 138.239,22.378 137.898,22.378C137.572,22.378 137.284,22.098 137.284,21.785C137.284,21.493 137.572,21.222 137.898,21.222C138.223,21.222 138.511,21.485 138.511,21.785M137.352,23.333C137.352,22.991 137.58,22.763 137.898,22.763C138.216,22.763 138.443,22.991 138.443,23.333L138.443,26.072C138.443,26.415 138.216,26.643 137.898,26.643C137.58,26.643 137.352,26.415 137.352,26.072L137.352,23.333Z" style="fill:#007e96;fill-rule:nonzero;"/>
    <path d="M139.396,23.704L139.154,23.704C138.859,23.704 138.677,23.532 138.677,23.255C138.677,22.998 138.881,22.805 139.154,22.805L139.396,22.805L139.396,22.191C139.396,21.85 139.624,21.621 139.942,21.621C140.259,21.621 140.487,21.85 140.487,22.191L140.487,22.805L140.797,22.805C141.078,22.805 141.32,22.927 141.32,23.255C141.32,23.576 141.078,23.704 140.797,23.704L140.487,23.704L140.487,26.072C140.487,26.415 140.259,26.643 139.942,26.643C139.624,26.643 139.396,26.415 139.396,26.072L139.396,23.704Z" style="fill:#007e96;fill-rule:nonzero;"/>
    <path d="M145.145,25.973C145.145,26.237 145.145,26.644 144.623,26.644C144.305,26.644 144.176,26.48 144.101,26.208C143.82,26.522 143.479,26.686 143.063,26.686C142.04,26.686 141.26,25.867 141.26,24.71C141.26,23.583 142.062,22.72 143.063,22.72C143.464,22.72 143.858,22.869 144.101,23.191C144.131,22.941 144.358,22.763 144.623,22.763C145.145,22.763 145.145,23.169 145.145,23.433L145.145,25.973ZM143.214,25.744C143.782,25.744 144.055,25.202 144.055,24.71C144.055,24.218 143.79,23.661 143.214,23.661C142.616,23.661 142.351,24.218 142.351,24.71C142.351,25.202 142.624,25.744 143.214,25.744" style="fill:#007e96;fill-rule:nonzero;"/>
    <path d="M146.114,23.704L145.872,23.704C145.576,23.704 145.395,23.532 145.395,23.255C145.395,22.998 145.599,22.805 145.872,22.805L146.114,22.805L146.114,22.191C146.114,21.85 146.342,21.621 146.66,21.621C146.977,21.621 147.205,21.85 147.205,22.191L147.205,22.805L147.515,22.805C147.796,22.805 148.038,22.927 148.038,23.255C148.038,23.576 147.796,23.704 147.515,23.704L147.205,23.704L147.205,26.072C147.205,26.415 146.977,26.643 146.66,26.643C146.342,26.643 146.114,26.415 146.114,26.072L146.114,23.704Z" style="fill:#007e96;fill-rule:nonzero;"/>
    <path d="M149.373,21.785C149.373,22.106 149.101,22.378 148.76,22.378C148.434,22.378 148.146,22.098 148.146,21.785C148.146,21.493 148.434,21.222 148.76,21.222C149.085,21.222 149.373,21.485 149.373,21.785M148.214,23.333C148.214,22.991 148.441,22.763 148.76,22.763C149.078,22.763 149.305,22.991 149.305,23.333L149.305,26.072C149.305,26.415 149.078,26.643 148.76,26.643C148.441,26.643 148.214,26.415 148.214,26.072L148.214,23.333Z" style="fill:#007e96;fill-rule:nonzero;"/>
    <path d="M153.678,24.71C153.678,25.78 152.898,26.686 151.724,26.686C150.55,26.686 149.77,25.78 149.77,24.71C149.77,23.669 150.572,22.72 151.724,22.72C152.875,22.72 153.678,23.669 153.678,24.71M150.86,24.71C150.86,25.202 151.133,25.744 151.724,25.744C152.315,25.744 152.587,25.202 152.587,24.71C152.587,24.218 152.322,23.661 151.724,23.661C151.125,23.661 150.86,24.218 150.86,24.71" style="fill:#007e96;fill-rule:nonzero;"/>
    <path d="M154.166,23.333C154.166,22.991 154.393,22.763 154.711,22.763C154.991,22.763 155.173,22.905 155.211,23.141C155.423,22.862 155.749,22.72 156.263,22.72C157.12,22.72 157.755,23.233 157.755,24.104L157.755,26.072C157.755,26.415 157.528,26.644 157.21,26.644C156.892,26.644 156.665,26.415 156.665,26.072L156.665,24.282C156.665,23.805 156.347,23.576 155.953,23.576C155.506,23.576 155.256,23.882 155.256,24.282L155.256,26.072C155.256,26.415 155.029,26.644 154.711,26.644C154.393,26.644 154.166,26.415 154.166,26.072L154.166,23.333Z" style="fill:#007e96;fill-rule:nonzero;"/>
    <path d="M69.012,34.529C69.012,34.793 69.012,35.2 68.489,35.2C68.171,35.2 68.043,35.036 67.967,34.764C67.686,35.078 67.345,35.242 66.929,35.242C65.907,35.242 65.126,34.423 65.126,33.266C65.126,32.139 65.929,31.276 66.929,31.276C67.33,31.276 67.724,31.425 67.967,31.747C67.997,31.497 68.224,31.319 68.489,31.319C69.012,31.319 69.012,31.725 69.012,31.989L69.012,34.529ZM67.08,34.3C67.649,34.3 67.921,33.758 67.921,33.266C67.921,32.774 67.656,32.217 67.08,32.217C66.482,32.217 66.217,32.774 66.217,33.266C66.217,33.758 66.49,34.3 67.08,34.3" style="fill:#007e96;fill-rule:nonzero;"/>
    <path d="M69.699,31.89C69.699,31.548 69.926,31.32 70.244,31.32C70.525,31.32 70.706,31.462 70.744,31.698C70.956,31.419 71.282,31.277 71.797,31.277C72.653,31.277 73.289,31.79 73.289,32.661L73.289,34.629C73.289,34.972 73.062,35.201 72.744,35.201C72.426,35.201 72.199,34.972 72.199,34.629L72.199,32.839C72.199,32.362 71.88,32.133 71.487,32.133C71.04,32.133 70.789,32.439 70.789,32.839L70.789,34.629C70.789,34.972 70.562,35.201 70.244,35.201C69.926,35.201 69.699,34.972 69.699,34.629L69.699,31.89Z" style="fill:#007e96;fill-rule:nonzero;"/>
    <path d="M77.662,34.629C77.662,34.972 77.435,35.2 77.117,35.2C76.814,35.2 76.64,35.043 76.572,34.773C76.367,35.086 75.943,35.242 75.572,35.242C74.474,35.242 73.777,34.279 73.777,33.31C73.777,32.311 74.36,31.276 75.534,31.276C75.913,31.276 76.284,31.398 76.572,31.633L76.572,30.234C76.572,29.892 76.799,29.664 77.117,29.664C77.435,29.664 77.662,29.892 77.662,30.234L77.662,34.629ZM75.716,32.218C75.148,32.218 74.868,32.781 74.868,33.267C74.868,33.744 75.148,34.301 75.716,34.301C76.314,34.301 76.572,33.731 76.572,33.231C76.572,32.732 76.299,32.218 75.716,32.218" style="fill:#007e96;fill-rule:nonzero;"/>
    <path d="M80.31,30.235C80.31,29.893 80.537,29.665 80.855,29.665C81.173,29.665 81.401,29.893 81.401,30.235L81.401,31.633L81.415,31.633C81.643,31.37 82.067,31.277 82.408,31.277C83.264,31.277 83.9,31.791 83.9,32.662L83.9,34.63C83.9,34.972 83.673,35.201 83.354,35.201C83.036,35.201 82.809,34.972 82.809,34.63L82.809,32.839C82.809,32.361 82.491,32.133 82.097,32.133C81.65,32.133 81.401,32.44 81.401,32.839L81.401,34.63C81.401,34.972 81.173,35.201 80.855,35.201C80.537,35.201 80.31,34.972 80.31,34.63L80.31,30.235Z" style="fill:#007e96;fill-rule:nonzero;"/>
    <path d="M84.2,32.025C84.17,31.946 84.147,31.868 84.147,31.761C84.147,31.504 84.435,31.319 84.662,31.319C84.927,31.319 85.117,31.455 85.208,31.683L85.957,33.616L86.76,31.683C86.851,31.455 87.04,31.319 87.305,31.319C87.533,31.319 87.82,31.504 87.82,31.761C87.82,31.868 87.805,31.946 87.767,32.025L85.942,36.305C85.851,36.519 85.685,36.712 85.427,36.712C85.056,36.712 84.859,36.491 84.859,36.27C84.859,36.17 84.889,36.062 84.927,35.97L85.404,34.857L84.2,32.025Z" style="fill:#007e96;fill-rule:nonzero;"/>
    <path d="M91.774,34.858C91.774,36.092 90.919,36.712 89.676,36.712C89.23,36.712 87.958,36.506 87.958,35.942C87.958,35.75 88.184,35.493 88.396,35.493C88.745,35.493 89.131,35.814 89.76,35.814C90.29,35.814 90.684,35.522 90.684,35.001L90.684,34.758L90.668,34.758C90.441,35.073 90.07,35.243 89.57,35.243C88.426,35.243 87.889,34.295 87.889,33.274C87.889,32.24 88.586,31.277 89.684,31.277C90.055,31.277 90.479,31.434 90.684,31.748C90.752,31.477 90.926,31.32 91.229,31.32C91.547,31.32 91.774,31.548 91.774,31.89L91.774,34.858ZM89.828,32.218C89.26,32.218 88.98,32.775 88.98,33.253C88.98,33.802 89.26,34.301 89.828,34.301C90.411,34.301 90.684,33.788 90.684,33.289C90.684,32.79 90.426,32.218 89.828,32.218" style="fill:#007e96;fill-rule:nonzero;"/>
    <path d="M93.604,30.342C93.604,30.663 93.332,30.934 92.991,30.934C92.665,30.934 92.377,30.655 92.377,30.342C92.377,30.05 92.665,29.779 92.991,29.779C93.316,29.779 93.604,30.042 93.604,30.342M92.445,31.89C92.445,31.548 92.672,31.32 92.991,31.32C93.309,31.32 93.536,31.548 93.536,31.89L93.536,34.629C93.536,34.972 93.309,35.2 92.991,35.2C92.672,35.2 92.445,34.972 92.445,34.629L92.445,31.89Z" style="fill:#007e96;fill-rule:nonzero;"/>
    <path d="M95.076,33.603C95.151,34.109 95.598,34.344 96.106,34.344C96.666,34.344 97.053,33.931 97.34,33.931C97.575,33.931 97.787,34.152 97.787,34.373C97.787,34.816 96.818,35.243 96.008,35.243C94.78,35.243 93.963,34.402 93.963,33.267C93.963,32.226 94.765,31.277 95.916,31.277C97.098,31.277 97.878,32.29 97.878,33.146C97.878,33.453 97.734,33.603 97.401,33.603L95.076,33.603ZM96.787,32.917C96.727,32.467 96.424,32.133 95.916,32.133C95.431,32.133 95.106,32.483 95.053,32.917L96.787,32.917Z" style="fill:#007e96;fill-rule:nonzero;"/>
    <path d="M98.341,31.89C98.341,31.548 98.568,31.32 98.886,31.32C99.166,31.32 99.348,31.462 99.386,31.698C99.598,31.419 99.924,31.277 100.439,31.277C101.295,31.277 101.931,31.79 101.931,32.661L101.931,34.629C101.931,34.972 101.704,35.201 101.385,35.201C101.068,35.201 100.84,34.972 100.84,34.629L100.84,32.839C100.84,32.362 100.522,32.133 100.128,32.133C99.681,32.133 99.432,32.439 99.432,32.839L99.432,34.629C99.432,34.972 99.204,35.201 98.886,35.201C98.568,35.201 98.341,34.972 98.341,34.629L98.341,31.89Z" style="fill:#007e96;fill-rule:nonzero;"/>
    <path d="M103.481,33.603C103.556,34.109 104.003,34.344 104.511,34.344C105.071,34.344 105.458,33.931 105.745,33.931C105.98,33.931 106.192,34.152 106.192,34.373C106.192,34.816 105.222,35.243 104.413,35.243C103.185,35.243 102.368,34.402 102.368,33.267C102.368,32.226 103.17,31.277 104.321,31.277C105.502,31.277 106.283,32.29 106.283,33.146C106.283,33.453 106.139,33.603 105.806,33.603L103.481,33.603ZM105.192,32.917C105.132,32.467 104.829,32.133 104.321,32.133C103.836,32.133 103.511,32.483 103.458,32.917L105.192,32.917Z" style="fill:#007e96;fill-rule:nonzero;"/>
    <path d="M110.991,32.475C110.786,32.475 110.37,32.175 110.014,32.175C109.817,32.175 109.643,32.261 109.643,32.461C109.643,32.939 111.536,32.868 111.536,34.037C111.536,34.722 110.923,35.243 109.984,35.243C109.37,35.243 108.462,34.914 108.462,34.452C108.462,34.294 108.628,33.995 108.93,33.995C109.355,33.995 109.545,34.344 110.06,34.344C110.392,34.344 110.491,34.245 110.491,34.052C110.491,33.58 108.598,33.652 108.598,32.475C108.598,31.762 109.211,31.277 110.074,31.277C110.613,31.277 111.438,31.512 111.438,32.019C111.438,32.254 111.248,32.475 110.991,32.475" style="fill:#007e96;fill-rule:nonzero;"/>
    <path d="M112.857,33.603C112.933,34.109 113.38,34.344 113.887,34.344C114.447,34.344 114.834,33.931 115.122,33.931C115.356,33.931 115.568,34.152 115.568,34.373C115.568,34.816 114.599,35.243 113.789,35.243C112.562,35.243 111.744,34.402 111.744,33.267C111.744,32.226 112.547,31.277 113.697,31.277C114.879,31.277 115.659,32.29 115.659,33.146C115.659,33.453 115.515,33.603 115.183,33.603L112.857,33.603ZM114.568,32.917C114.508,32.467 114.205,32.133 113.697,32.133C113.212,32.133 112.887,32.483 112.834,32.917L114.568,32.917Z" style="fill:#007e96;fill-rule:nonzero;"/>
    <path d="M116.115,31.833C116.115,31.49 116.404,31.319 116.676,31.319C116.964,31.319 117.206,31.419 117.206,31.747L117.221,31.747C117.426,31.462 117.645,31.319 117.986,31.319C118.251,31.319 118.516,31.497 118.516,31.868C118.516,32.204 118.191,32.226 117.865,32.368C117.539,32.51 117.206,32.645 117.206,33.053L117.206,34.629C117.206,34.972 116.979,35.2 116.661,35.2C116.343,35.2 116.115,34.972 116.115,34.629L116.115,31.833Z" style="fill:#007e96;fill-rule:nonzero;"/>
    <path d="M118.654,32.118C118.601,31.99 118.586,31.911 118.586,31.818C118.586,31.49 118.858,31.319 119.154,31.319C119.457,31.319 119.585,31.525 119.639,31.683L120.336,33.709L120.35,33.709L121.047,31.683C121.101,31.525 121.229,31.319 121.532,31.319C121.827,31.319 122.1,31.49 122.1,31.818C122.1,31.911 122.085,31.99 122.032,32.118L120.933,34.772C120.827,35.036 120.714,35.2 120.342,35.2C119.971,35.2 119.858,35.036 119.753,34.772L118.654,32.118Z" style="fill:#007e96;fill-rule:nonzero;"/>
    <path d="M123.564,30.342C123.564,30.663 123.292,30.934 122.95,30.934C122.625,30.934 122.337,30.655 122.337,30.342C122.337,30.05 122.625,29.779 122.95,29.779C123.276,29.779 123.564,30.042 123.564,30.342M122.405,31.89C122.405,31.548 122.632,31.32 122.95,31.32C123.269,31.32 123.496,31.548 123.496,31.89L123.496,34.629C123.496,34.972 123.269,35.2 122.95,35.2C122.632,35.2 122.405,34.972 122.405,34.629L122.405,31.89Z" style="fill:#007e96;fill-rule:nonzero;"/>
    <path d="M126.832,32.418C126.56,32.418 126.317,32.218 125.969,32.218C125.348,32.218 125.052,32.738 125.052,33.267C125.052,33.773 125.378,34.301 125.969,34.301C126.241,34.301 126.65,34.087 126.779,34.087C127.037,34.087 127.249,34.294 127.249,34.536C127.249,35.064 126.31,35.242 125.915,35.242C124.742,35.242 123.962,34.337 123.962,33.267C123.962,32.226 124.764,31.276 125.915,31.276C126.348,31.276 127.249,31.426 127.249,31.926C127.249,32.14 127.089,32.418 126.832,32.418" style="fill:#007e96;fill-rule:nonzero;"/>
    <path d="M128.496,33.603C128.572,34.109 129.019,34.344 129.526,34.344C130.087,34.344 130.473,33.931 130.761,33.931C130.995,33.931 131.207,34.152 131.207,34.373C131.207,34.816 130.238,35.243 129.428,35.243C128.201,35.243 127.383,34.402 127.383,33.267C127.383,32.226 128.186,31.277 129.336,31.277C130.518,31.277 131.299,32.29 131.299,33.146C131.299,33.453 131.155,33.603 130.821,33.603L128.496,33.603ZM130.207,32.917C130.147,32.467 129.844,32.133 129.336,32.133C128.852,32.133 128.526,32.483 128.473,32.917L130.207,32.917Z" style="fill:#007e96;fill-rule:nonzero;"/>
    <path d="M134.027,32.475C133.822,32.475 133.406,32.175 133.05,32.175C132.853,32.175 132.679,32.261 132.679,32.461C132.679,32.939 134.572,32.868 134.572,34.037C134.572,34.722 133.959,35.243 133.02,35.243C132.406,35.243 131.498,34.914 131.498,34.452C131.498,34.294 131.664,33.995 131.967,33.995C132.391,33.995 132.581,34.344 133.096,34.344C133.429,34.344 133.527,34.245 133.527,34.052C133.527,33.58 131.634,33.652 131.634,32.475C131.634,31.762 132.247,31.277 133.11,31.277C133.649,31.277 134.474,31.512 134.474,32.019C134.474,32.254 134.284,32.475 134.027,32.475" style="fill:#007e96;fill-rule:nonzero;"/>
    <path d="M137.237,32.261L136.994,32.261C136.699,32.261 136.517,32.09 136.517,31.812C136.517,31.555 136.722,31.362 136.994,31.362L137.237,31.362L137.237,30.834C137.237,30.078 137.714,29.664 138.381,29.664C138.767,29.664 139.138,29.772 139.138,30.128C139.138,30.427 138.994,30.563 138.691,30.563C138.509,30.563 138.327,30.563 138.327,30.941L138.327,31.362L138.668,31.362C138.994,31.362 139.22,31.484 139.22,31.812C139.22,32.133 138.986,32.261 138.668,32.261L138.327,32.261L138.327,34.629C138.327,34.972 138.1,35.2 137.782,35.2C137.464,35.2 137.237,34.972 137.237,34.629L137.237,32.261Z" style="fill:#007e96;fill-rule:nonzero;"/>
    <path d="M143.03,33.267C143.03,34.337 142.249,35.243 141.075,35.243C139.902,35.243 139.122,34.337 139.122,33.267C139.122,32.226 139.924,31.277 141.075,31.277C142.227,31.277 143.03,32.226 143.03,33.267M140.212,33.267C140.212,33.759 140.485,34.301 141.075,34.301C141.666,34.301 141.939,33.759 141.939,33.267C141.939,32.775 141.674,32.218 141.075,32.218C140.477,32.218 140.212,32.775 140.212,33.267" style="fill:#007e96;fill-rule:nonzero;"/>
    <path d="M143.511,31.833C143.511,31.49 143.799,31.319 144.072,31.319C144.36,31.319 144.602,31.419 144.602,31.747L144.617,31.747C144.822,31.462 145.041,31.319 145.382,31.319C145.648,31.319 145.912,31.497 145.912,31.868C145.912,32.204 145.587,32.226 145.261,32.368C144.935,32.51 144.602,32.645 144.602,33.053L144.602,34.629C144.602,34.972 144.375,35.2 144.057,35.2C143.739,35.2 143.511,34.972 143.511,34.629L143.511,31.833Z" style="fill:#007e96;fill-rule:nonzero;"/>
    <path d="M148.06,30.235C148.06,29.893 148.288,29.665 148.605,29.665C148.924,29.665 149.151,29.893 149.151,30.235L149.151,34.63C149.151,34.972 148.924,35.201 148.605,35.201C148.288,35.201 148.06,34.972 148.06,34.63L148.06,30.235Z" style="fill:#007e96;fill-rule:nonzero;"/>
    <path d="M150.967,30.342C150.967,30.663 150.695,30.934 150.354,30.934C150.028,30.934 149.74,30.655 149.74,30.342C149.74,30.05 150.028,29.779 150.354,29.779C150.679,29.779 150.967,30.042 150.967,30.342M149.808,31.89C149.808,31.548 150.036,31.32 150.354,31.32C150.672,31.32 150.899,31.548 150.899,31.89L150.899,34.629C150.899,34.972 150.672,35.2 150.354,35.2C150.036,35.2 149.808,34.972 149.808,34.629L149.808,31.89Z" style="fill:#007e96;fill-rule:nonzero;"/>
    <path d="M151.846,32.261L151.604,32.261C151.308,32.261 151.127,32.09 151.127,31.812C151.127,31.555 151.331,31.362 151.604,31.362L151.846,31.362L151.846,30.834C151.846,30.078 152.323,29.664 152.99,29.664C153.376,29.664 153.747,29.772 153.747,30.128C153.747,30.427 153.603,30.563 153.3,30.563C153.118,30.563 152.936,30.563 152.936,30.941L152.936,31.362L153.277,31.362C153.603,31.362 153.83,31.484 153.83,31.812C153.83,32.133 153.595,32.261 153.277,32.261L152.936,32.261L152.936,34.629C152.936,34.972 152.709,35.2 152.391,35.2C152.073,35.2 151.846,34.972 151.846,34.629L151.846,32.261Z" style="fill:#007e96;fill-rule:nonzero;"/>
    <path d="M154.807,33.603C154.882,34.109 155.329,34.344 155.837,34.344C156.397,34.344 156.784,33.931 157.071,33.931C157.306,33.931 157.518,34.152 157.518,34.373C157.518,34.816 156.549,35.243 155.739,35.243C154.511,35.243 153.694,34.402 153.694,33.267C153.694,32.226 154.496,31.277 155.647,31.277C156.828,31.277 157.609,32.29 157.609,33.146C157.609,33.453 157.465,33.603 157.131,33.603L154.807,33.603ZM156.518,32.917C156.458,32.467 156.155,32.133 155.647,32.133C155.162,32.133 154.837,32.483 154.784,32.917L156.518,32.917Z" style="fill:#007e96;fill-rule:nonzero;"/>
</svg>
