<?xml version="1.0" encoding="UTF-8" standalone="no"?>
<!DOCTYPE svg PUBLIC "-//W3C//DTD SVG 1.1//EN" "http://www.w3.org/Graphics/SVG/1.1/DTD/svg11.dtd">
<svg width="100%" height="100%" viewBox="0 0 31 29" version="1.1" xmlns="http://www.w3.org/2000/svg" xmlns:xlink="http://www.w3.org/1999/xlink" xml:space="preserve" xmlns:serif="http://www.serif.com/" style="fill-rule:evenodd;clip-rule:evenodd;stroke-linejoin:round;stroke-miterlimit:2;">
    <path d="M3.66,-0C5.678,-0 7.318,1.52 7.318,3.39C7.318,5.262 5.678,6.782 3.66,6.782C1.637,6.782 -0,5.262 -0,3.39C-0,1.52 1.637,-0 3.66,-0M0.503,9.354L6.815,9.354L6.815,28.173L0.503,28.173L0.503,9.354Z" style="fill:#013f4c;fill-rule:nonzero;"/>
    <path d="M10.772,9.355L16.827,9.355L16.827,11.926L16.911,11.926C17.753,10.447 19.812,8.887 22.882,8.887C29.273,8.887 30.453,12.785 30.453,17.852L30.453,28.174L24.146,28.174L24.146,19.023C24.146,16.839 24.103,14.033 20.866,14.033C17.582,14.033 17.079,16.41 17.079,18.865L17.079,28.174L10.772,28.174L10.772,9.355Z" style="fill:#013f4c;fill-rule:nonzero;"/>
</svg>
