<?xml version="1.0" encoding="UTF-8" standalone="no"?>
<!DOCTYPE svg PUBLIC "-//W3C//DTD SVG 1.1//EN" "http://www.w3.org/Graphics/SVG/1.1/DTD/svg11.dtd">
<svg width="100%" height="100%" viewBox="0 0 45 28" version="1.1" xmlns="http://www.w3.org/2000/svg" xmlns:xlink="http://www.w3.org/1999/xlink" xml:space="preserve" xmlns:serif="http://www.serif.com/" style="fill-rule:evenodd;clip-rule:evenodd;stroke-linejoin:round;stroke-miterlimit:2;">
    <path d="M43.388,21.601C43.071,21.759 42.773,22.009 42.503,22.405C42.134,22.038 41.821,21.726 41.507,21.414C41.518,21.531 41.529,21.649 41.54,21.767C40.622,21.992 39.704,22.218 38.746,22.454C38.198,21.422 37.577,20.927 36.987,21.511C36.214,22.276 35.373,22.109 34.41,21.449C34.032,21.188 33.326,21.051 33.257,21.344C33.027,22.313 32.563,21.862 32.137,21.789C31.843,21.738 31.45,21.526 31.284,21.748C30.933,22.213 30.577,21.885 30.228,21.575C29.182,20.644 28.202,20.641 27.26,20.954C25.937,21.393 24.648,21.974 23.139,21.313C22.845,21.184 22.547,21.274 22.291,21.264C22.251,21.655 22.22,21.971 22.186,22.301C21.24,21.511 20.388,20.947 19.558,21.402C19.398,21.489 19.197,21.468 19.009,21.432C17.522,21.14 16.174,21.527 14.862,22.154C14.478,22.336 13.973,22.354 13.554,22.092C12.697,21.556 12.012,21.68 11.307,22.149C10.519,22.674 9.674,23.003 8.661,22.447C8.326,22.264 7.968,22.495 7.624,22.555C7.311,22.609 6.989,22.893 6.696,22.721C5.572,22.062 4.576,21.863 3.691,22.856C3.392,23.191 2.859,23.05 2.421,23.02C2.174,23.003 1.902,22.768 1.758,22.693C1.263,23.201 0.841,23.572 0.465,24.038C0.095,24.495 -0.151,25.149 0.105,26.122C0.37,27.131 0.866,27.447 1.385,27.351C1.952,27.247 2.487,26.956 3.062,26.904C5.258,26.705 7.456,26.512 9.671,26.434C10.994,26.389 12.258,25.845 13.681,26.554C13.827,26.626 13.978,26.557 14.126,26.547C16.293,26.414 18.459,26.273 20.627,26.149C22.062,26.066 23.502,26.02 24.935,25.936C26.218,25.86 27.487,25.695 28.777,25.674C30.511,25.645 32.258,25.72 33.999,25.744C37.613,25.794 41.221,25.803 44.839,25.897L43.388,21.601Z" style="fill:#fab511;fill-rule:nonzero;"/>
    <path d="M43.947,13.047C43.525,12.726 43.067,12.478 42.523,12.133C42.387,12.198 42.141,12.387 41.897,12.415C41.464,12.464 40.948,12.599 40.617,12.37C39.635,11.691 38.665,11.898 37.614,12.452C37.34,12.597 36.991,12.406 36.674,12.385C36.326,12.361 35.946,12.213 35.632,12.368C34.681,12.84 33.806,12.648 32.968,12.308C32.219,12.004 31.526,11.954 30.728,12.401C30.337,12.62 29.833,12.637 29.433,12.526C28.064,12.143 26.684,11.939 25.234,12.243C25.051,12.281 24.853,12.309 24.685,12.254C23.813,11.969 23.023,12.436 22.162,13.076C22.096,12.835 22.032,12.603 21.952,12.317C21.698,12.34 21.393,12.292 21.114,12.405C19.68,12.983 18.339,12.632 16.978,12.388C16.009,12.214 15.035,12.276 14.089,13.025C13.773,13.275 13.453,13.539 13.057,13.217C12.868,13.064 12.499,13.243 12.212,13.298C11.795,13.379 11.38,13.739 11.052,13.038C10.953,12.826 10.266,12.969 9.915,13.184C9.026,13.73 8.206,13.904 7.359,13.386C6.713,12.99 6.146,13.394 5.705,14.188C4.728,14.071 3.792,13.961 2.856,13.849C2.855,13.762 2.854,13.674 2.853,13.587C2.573,13.836 2.292,14.086 1.963,14.378C1.654,14.103 1.332,13.936 1,13.839L0.73,14.714C0.806,14.771 0.873,14.822 0.96,14.885C3.653,16.821 2.297,15.442 4.503,16.025C6.709,16.609 4.409,15.985 7.586,16.157C8.369,16.199 8.9,16.302 9.258,16.433C9.759,16.398 10.261,16.365 10.762,16.329C12.491,16.206 14.223,16.046 15.95,15.963C17.235,15.9 18.515,15.945 19.798,15.924C21.233,15.9 22.67,15.847 24.105,15.821C26.275,15.782 28.444,15.755 30.613,15.723C30.761,15.721 30.919,15.763 31.056,15.701C32.4,15.092 33.713,15.417 35.033,15.371C37.244,15.295 39.45,15.305 41.655,15.319C42.233,15.322 42.794,15.505 43.369,15.548C43.895,15.587 44.356,15.324 44.517,14.563C44.672,13.83 44.361,13.362 43.947,13.047" style="fill:#fab511;fill-rule:nonzero;"/>
    <path d="M2.722,5.388C5.726,5.056 3.696,4.127 8.569,4.467C13.441,4.807 27.572,5.871 30.576,5.422C33.581,4.973 42.757,5.482 43.082,4.522C43.407,3.561 43.96,2.811 43.721,2.039L43.481,1.266C43.166,1.442 42.872,1.722 42.609,2.171C42.232,1.742 41.911,1.377 41.591,1.013C41.604,1.148 41.618,1.283 41.631,1.419C40.715,1.659 39.799,1.899 38.844,2.15C38.273,0.955 37.641,0.373 37.061,1.032C36.301,1.894 35.454,1.685 34.476,0.908C34.091,0.6 33.382,0.429 33.318,0.763C33.106,1.871 32.632,1.345 32.203,1.252C31.908,1.187 31.509,0.936 31.347,1.187C31.004,1.714 30.64,1.33 30.284,0.967C29.218,-0.123 28.236,-0.147 27.297,0.193C25.978,0.67 24.698,1.31 23.172,0.521C22.874,0.367 22.577,0.464 22.32,0.447C22.288,0.895 22.262,1.258 22.235,1.636C21.271,0.709 20.407,0.044 19.582,0.55C19.424,0.647 19.221,0.618 19.033,0.573C17.536,0.207 16.192,0.624 14.889,1.317C14.508,1.519 14.001,1.529 13.576,1.219C12.705,0.586 12.022,0.714 11.324,1.239C10.544,1.825 9.703,2.186 8.676,1.527C8.338,1.309 7.982,1.567 7.639,1.629C7.326,1.685 7.009,2.005 6.711,1.801C5.572,1.021 4.569,0.772 3.701,1.895C3.408,2.273 2.871,2.1 2.431,2.057C2.183,2.032 1.906,1.757 1.76,1.668C1.273,2.241 0.857,2.658 0.489,3.184C0.231,3.554 0.042,4.042 0.053,4.697C0.53,5.156 1.341,5.541 2.722,5.388" style="fill:#fab511;fill-rule:nonzero;"/>
</svg>
