<?xml version="1.0" encoding="UTF-8" standalone="no"?>
<!DOCTYPE svg PUBLIC "-//W3C//DTD SVG 1.1//EN" "http://www.w3.org/Graphics/SVG/1.1/DTD/svg11.dtd">
<svg width="100%" height="100%" viewBox="0 0 34 35" version="1.1" xmlns="http://www.w3.org/2000/svg" xmlns:xlink="http://www.w3.org/1999/xlink" xml:space="preserve" xmlns:serif="http://www.serif.com/" style="fill-rule:evenodd;clip-rule:evenodd;stroke-linejoin:round;stroke-miterlimit:2;">
    <path d="M15.507,3C8.611,3 3,8.61 3,15.506C3,22.403 8.611,28.013 15.507,28.013C22.403,28.013 28.013,22.403 28.013,15.506C28.013,8.61 22.403,3 15.507,3M15.507,31.013C6.957,31.013 0,24.057 0,15.506C0,6.956 6.957,0 15.507,0C24.057,0 31.013,6.956 31.013,15.506C31.013,24.057 24.057,31.013 15.507,31.013" style="fill:#e5e7e7;fill-rule:nonzero;"/>
    <path d="M30.409,33.812L21.364,24.766C20.631,24.034 20.631,22.834 21.364,22.102C22.096,21.369 23.295,21.369 24.028,22.102L33.074,31.148C33.806,31.88 33.806,33.079 33.074,33.812C32.341,34.544 31.142,34.544 30.409,33.812" style="fill:#e5e7e7;fill-rule:nonzero;"/>
</svg>
