<?xml version="1.0" encoding="UTF-8" standalone="no"?>
<!DOCTYPE svg PUBLIC "-//W3C//DTD SVG 1.1//EN" "http://www.w3.org/Graphics/SVG/1.1/DTD/svg11.dtd">
<svg width="100%" height="100%" viewBox="0 0 21 16" version="1.1" xmlns="http://www.w3.org/2000/svg" xmlns:xlink="http://www.w3.org/1999/xlink" xml:space="preserve" xmlns:serif="http://www.serif.com/" style="fill-rule:evenodd;clip-rule:evenodd;stroke-linejoin:round;stroke-miterlimit:2;">
    <path d="M10.339,3.296L13.449,6.067L2.167,6.067C0.97,6.067 -0,6.933 -0,7.999C-0,9.066 0.97,9.931 2.167,9.931L13.449,9.931L10.339,12.702C9.916,13.079 9.704,13.573 9.704,14.067C9.704,14.563 9.916,15.057 10.339,15.434C11.186,16.188 12.558,16.188 13.404,15.434L20.214,9.365C21.061,8.61 21.061,7.388 20.214,6.633L13.404,0.565C12.558,-0.189 11.186,-0.189 10.339,0.565C9.493,1.319 9.493,2.542 10.339,3.296" style="fill:#fff;fill-rule:nonzero;"/>
</svg>
