<?xml version="1.0" encoding="UTF-8" standalone="no"?>
<!DOCTYPE svg PUBLIC "-//W3C//DTD SVG 1.1//EN" "http://www.w3.org/Graphics/SVG/1.1/DTD/svg11.dtd">
<svg width="100%" height="100%" viewBox="0 0 42 31" version="1.1" xmlns="http://www.w3.org/2000/svg" xmlns:xlink="http://www.w3.org/1999/xlink" xml:space="preserve" xmlns:serif="http://www.serif.com/" style="fill-rule:evenodd;clip-rule:evenodd;stroke-linejoin:round;stroke-miterlimit:2;">
    <path d="M41.133,3.667C39.62,4.289 37.993,4.709 36.286,4.898C38.029,3.931 39.367,2.397 39.997,0.571C38.366,1.468 36.56,2.118 34.638,2.469C33.098,0.949 30.905,0 28.478,0C23.818,0 20.039,3.501 20.039,7.82C20.039,8.434 20.113,9.03 20.258,9.603C13.244,9.276 7.026,6.163 2.863,1.432C2.137,2.586 1.721,3.93 1.721,5.363C1.721,8.076 3.211,10.47 5.475,11.873C4.091,11.832 2.79,11.48 1.653,10.895C1.652,10.928 1.652,10.96 1.652,10.993C1.652,14.782 4.561,17.943 8.421,18.661C7.713,18.84 6.967,18.937 6.198,18.937C5.654,18.937 5.126,18.887 4.61,18.796C5.684,21.902 8.801,24.164 12.493,24.227C9.606,26.324 5.966,27.575 2.013,27.575C1.332,27.575 0.66,27.538 0,27.466C3.734,29.685 8.17,30.98 12.936,30.98C28.458,30.98 36.946,19.063 36.946,8.728C36.946,8.388 36.938,8.051 36.922,7.715C38.571,6.612 40.002,5.235 41.133,3.667" style="fill:#013f4c;fill-rule:nonzero;"/>
</svg>
