<?xml version="1.0" encoding="UTF-8" standalone="no"?>
<!DOCTYPE svg PUBLIC "-//W3C//DTD SVG 1.1//EN" "http://www.w3.org/Graphics/SVG/1.1/DTD/svg11.dtd">
<svg width="100%" height="100%" viewBox="0 0 43 28" version="1.1" xmlns="http://www.w3.org/2000/svg" xmlns:xlink="http://www.w3.org/1999/xlink" xml:space="preserve" xmlns:serif="http://www.serif.com/" style="fill-rule:evenodd;clip-rule:evenodd;stroke-linejoin:round;stroke-miterlimit:2;">
    <path d="M16.787,19.595L16.787,7.963L27.818,13.78L16.787,19.595ZM41.325,4.303C40.84,2.61 39.41,1.276 37.594,0.823C34.302,-0 21.103,-0 21.103,-0C21.103,-0 7.905,-0 4.613,0.823C2.797,1.276 1.367,2.61 0.882,4.303C0,7.373 0,13.78 0,13.78C0,13.78 0,20.185 0.882,23.255C1.367,24.949 2.797,26.283 4.613,26.737C7.905,27.559 21.103,27.559 21.103,27.559C21.103,27.559 34.302,27.559 37.594,26.737C39.41,26.283 40.84,24.949 41.325,23.255C42.207,20.185 42.207,13.78 42.207,13.78C42.207,13.78 42.207,7.373 41.325,4.303" style="fill:#013f4c;fill-rule:nonzero;"/>
</svg>
